<svg width="28" height="32" viewBox="0 0 28 32" fill="none" xmlns="http://www.w3.org/2000/svg">
<path d="M21.042 8.76844C21.042 9.135 20.7306 9.42625 20.3489 9.42625C19.9723 9.42625 19.6609 9.13506 19.6609 8.76844C19.6609 7.65356 19.45 6.54862 19.0834 5.55431C18.3753 3.59581 17.0846 2.03894 15.6434 1.51175C15.2969 1.38106 14.9453 1.31581 14.5887 1.31581C14.0212 1.31581 13.4588 1.48663 12.9265 1.79288C12.9265 1.79288 12.9265 1.79288 12.9215 1.79788C11.7816 2.46581 10.7822 3.77156 10.1644 5.3585C9.75769 6.40812 9.51663 7.57819 9.51663 8.76844C9.51663 9.135 9.21031 9.42625 8.82862 9.42625C8.452 9.42625 8.14062 9.13506 8.14062 8.76844C8.14062 7.62344 8.35156 6.43819 8.73825 5.32837C9.73756 2.42062 11.9221 0 14.5887 0C14.9504 0 15.3019 0.04525 15.6434 0.130688C16.6578 0.376625 17.5768 0.974313 18.3603 1.79288C18.3603 1.79788 18.3653 1.79788 18.3653 1.79788C19.3195 2.80225 20.0678 4.13819 20.5298 5.57944C20.8612 6.62406 21.042 7.70875 21.042 8.76844Z" fill="#373737"/>
<path d="M27.6509 30.5738L5.00186 31.995L5.20274 24.2361L5.34836 18.6315L5.35842 18.285L5.68486 5.50919V5.40375L5.68986 5.26312L8.73817 5.32837L10.1644 5.3585L10.8273 5.36856L12.2535 5.40375L19.0834 5.55431L20.5297 5.57944L21.2127 5.5945L22.649 5.62968L24.5071 5.66981L24.6377 5.67494L24.9692 5.67987L26.2698 5.705L26.3452 7.05081L26.3652 7.44256L27.6509 30.5738Z" fill="#FFB027"/>
<path d="M5.90581 5.37863L5.268 24.1758L5.00187 31.995V32L3.02325 31.2869L1.88325 30.8751L0 30.1921L0.085375 29.1224V29.0772L0.130562 28.5249L1.93344 5.45894L4.02256 5.59451L5.68488 5.40376L5.90581 5.37863Z" fill="#FFB027"/>
<g opacity="0.5">
<path d="M0.284119 30.1158L4.90581 31.8003L3.25043 29.4995L0.284119 30.1158Z" fill="#FFB027"/>
</g>
<g opacity="0.1">
<path d="M5.78511 5.45557L5.72211 5.50594L4.08168 5.80794L3.25043 29.4995L4.9058 31.8003L5.78511 5.45557Z" fill="#373737"/>
</g>
<path d="M10.9352 10.0154C11.4677 10.0154 11.8994 9.60322 11.8994 9.0947C11.8994 8.58618 11.4677 8.17395 10.9352 8.17395C10.4027 8.17395 9.97095 8.58618 9.97095 9.0947C9.97095 9.60322 10.4027 10.0154 10.9352 10.0154Z" fill="#ADADAD"/>
<path d="M22.4565 10.0154C22.989 10.0154 23.4207 9.60322 23.4207 9.0947C23.4207 8.58618 22.989 8.17395 22.4565 8.17395C21.924 8.17395 21.4922 8.58618 21.4922 9.0947C21.4922 9.60322 21.924 10.0154 22.4565 10.0154Z" fill="#ADADAD"/>
<path d="M23.1462 8.76844C23.1462 9.135 22.8348 9.42625 22.4582 9.42625C22.0765 9.42625 21.7702 9.13506 21.7702 8.76844C21.7702 8.66288 21.7702 8.56256 21.7652 8.457V8.42181C21.725 7.44256 21.5291 6.47837 21.2128 5.5945C20.6051 3.90206 19.5656 2.496 18.3653 1.79788C18.3653 1.79788 18.3603 1.79788 18.3603 1.79288C17.8279 1.48663 17.2654 1.31581 16.698 1.31581C16.3414 1.31581 15.9899 1.38106 15.6434 1.51175C14.2372 2.024 12.9717 3.51537 12.2536 5.40375C11.8919 6.34781 11.6659 7.39244 11.6308 8.457V8.46206C11.6258 8.5675 11.6258 8.66288 11.6258 8.76844C11.6258 9.135 11.3144 9.42625 10.9328 9.42625C10.5561 9.42625 10.2448 9.13506 10.2448 8.76844C10.2448 8.66288 10.2448 8.5525 10.2548 8.44194C10.2849 7.41256 10.4858 6.36287 10.8273 5.36856C11.2893 4.00763 12.0124 2.75213 12.9214 1.79788C12.9264 1.79288 12.9264 1.79288 12.9264 1.79288C13.7098 0.974375 14.6288 0.376625 15.6433 0.130688C15.9849 0.04525 16.3364 0 16.698 0C17.8531 0 18.9127 0.457062 19.8267 1.20531C19.8418 1.21537 19.8568 1.22544 19.8719 1.2405C20.1179 1.43631 20.3489 1.66225 20.5699 1.90844C20.585 1.92338 20.6001 1.9385 20.6101 1.95356C21.509 2.94788 22.2171 4.24362 22.649 5.62969C22.8097 6.14694 22.9353 6.68425 23.0206 7.22162C23.0859 7.62844 23.1211 8.03512 23.1361 8.44194C23.1462 8.5525 23.1462 8.66288 23.1462 8.76844Z" fill="#373737"/>
<path opacity="0.05" d="M27.6509 30.5737L5.00187 31.995V32L3.02325 31.2869L1.88325 30.8751L0 30.1921L0.085375 29.1224L0.1105 29.1023L3.37475 25.9837L5.15756 24.2762L5.20275 24.2361L5.268 24.1757L21.7652 8.4218L23.0206 7.22161L24.6377 5.67492L24.6427 5.6698L24.9692 5.67492L26.2698 5.70499L26.3452 7.0508L26.3652 7.44255L27.6509 30.5737Z" fill="#373737"/>
</svg>
