<svg width="48" height="48" viewBox="0 0 48 48" fill="none" xmlns="http://www.w3.org/2000/svg">
<rect width="48" height="48" rx="24" fill="#106F45"/>
<path d="M26.7209 28.1486L26.065 28.8391C26.065 28.8391 24.5061 30.4804 20.2509 26.0004C15.9957 21.5204 17.5546 19.8792 17.5546 19.8792L17.9676 19.4444C18.9851 18.3732 19.081 16.6535 18.1933 15.398L16.3775 12.8297C15.2788 11.2758 13.1558 11.0705 11.8965 12.3963L9.63626 14.7759C9.01185 15.4333 8.59341 16.2855 8.64416 17.2308C8.77397 19.6494 9.80742 24.8528 15.5741 30.9242C21.6894 37.3624 27.4274 37.6183 29.7739 37.3867C30.516 37.3134 31.1615 36.9133 31.6816 36.3656L33.7272 34.212C35.1081 32.7583 34.7187 30.2661 32.952 29.2492L30.2008 27.6656C29.0408 26.9979 27.6276 27.194 26.7209 28.1486Z" fill="#E7E7E7"/>
<path d="M30.24 23.0399C34.2164 23.0399 37.44 19.8163 37.44 15.8399C37.44 11.8634 34.2164 8.63989 30.24 8.63989C26.2636 8.63989 23.04 11.8634 23.04 15.8399C23.04 16.9917 23.3104 18.0803 23.7912 19.0457C23.9191 19.3022 23.9616 19.5955 23.8876 19.8723L23.4588 21.475C23.2726 22.1709 23.909 22.8073 24.6048 22.6211L26.2076 22.1923C26.4845 22.1183 26.7777 22.1608 27.0343 22.2886C27.9997 22.7695 29.0883 23.0399 30.24 23.0399Z" fill="#E7E7E7"/>
</svg>
