<svg width="37" height="36" viewBox="0 0 37 36" fill="none" xmlns="http://www.w3.org/2000/svg">
<path d="M3.33337 9.75C3.33337 6.56802 3.33337 4.97703 4.32189 3.98851C5.3104 3 6.90139 3 10.0834 3C13.2654 3 14.8563 3 15.8449 3.98851C16.8334 4.97703 16.8334 6.56802 16.8334 9.75C16.8334 12.932 16.8334 14.523 15.8449 15.5115C14.8563 16.5 13.2654 16.5 10.0834 16.5C6.90139 16.5 5.3104 16.5 4.32189 15.5115C3.33337 14.523 3.33337 12.932 3.33337 9.75Z" fill="#ADADAD"/>
<path d="M19.8334 26.25C19.8334 23.0681 19.8334 21.477 20.8219 20.4885C21.8104 19.5 23.4014 19.5 26.5834 19.5C29.7653 19.5 31.3564 19.5 32.3449 20.4885C33.3334 21.477 33.3334 23.0681 33.3334 26.25C33.3334 29.4319 33.3334 31.023 32.3449 32.0115C31.3564 33 29.7653 33 26.5834 33C23.4014 33 21.8104 33 20.8219 32.0115C19.8334 31.023 19.8334 29.4319 19.8334 26.25Z" fill="#ADADAD"/>
<path d="M3.33337 26.25C3.33337 23.0681 3.33337 21.477 4.32189 20.4885C5.3104 19.5 6.90139 19.5 10.0834 19.5C13.2654 19.5 14.8563 19.5 15.8449 20.4885C16.8334 21.477 16.8334 23.0681 16.8334 26.25C16.8334 29.4319 16.8334 31.023 15.8449 32.0115C14.8563 33 13.2654 33 10.0834 33C6.90139 33 5.3104 33 4.32189 32.0115C3.33337 31.023 3.33337 29.4319 3.33337 26.25Z" fill="#ADADAD"/>
<path d="M19.8334 9.75C19.8334 6.56802 19.8334 4.97703 20.8219 3.98851C21.8104 3 23.4014 3 26.5834 3C29.7653 3 31.3564 3 32.3449 3.98851C33.3334 4.97703 33.3334 6.56802 33.3334 9.75C33.3334 12.932 33.3334 14.523 32.3449 15.5115C31.3564 16.5 29.7653 16.5 26.5834 16.5C23.4014 16.5 21.8104 16.5 20.8219 15.5115C19.8334 14.523 19.8334 12.932 19.8334 9.75Z" fill="#ADADAD"/>
</svg>
