<svg width="36" height="36" viewBox="0 0 36 36" fill="none" xmlns="http://www.w3.org/2000/svg">
<path fill-rule="evenodd" clip-rule="evenodd" d="M3.7788 11.7341C3 13.1569 3 14.8732 3 18.3059V20.5875C3 26.4387 3 29.3644 4.75736 31.1821C6.51473 33 9.34314 33 15 33H21C26.6568 33 29.4853 33 31.2426 31.1821C33 29.3644 33 26.4387 33 20.5875V18.3059C33 14.8732 33 13.1569 32.2212 11.7341C31.4424 10.3113 30.0196 9.42826 27.174 7.66218L24.174 5.8003C21.1659 3.93343 19.6619 3 18 3C16.3381 3 14.8341 3.93343 11.826 5.8003L8.82604 7.66219C5.98042 9.42826 4.5576 10.3113 3.7788 11.7341ZM13.5 25.875C12.8787 25.875 12.375 26.3787 12.375 27C12.375 27.6213 12.8787 28.125 13.5 28.125H22.5C23.1213 28.125 23.625 27.6213 23.625 27C23.625 26.3787 23.1213 25.875 22.5 25.875H13.5Z" fill="#ADADAD"/>
</svg>
