<svg width="37" height="36" viewBox="0 0 37 36" fill="none" xmlns="http://www.w3.org/2000/svg">
<path fill-rule="evenodd" clip-rule="evenodd" d="M13.0418 10.5202C13.0417 10.5135 13.0416 10.5067 13.0416 10.5V9C13.0416 5.8934 15.56 3.375 18.6666 3.375C21.7733 3.375 24.2916 5.8934 24.2916 9V10.5C24.2916 10.5067 24.2916 10.5135 24.2915 10.5202C26.2374 10.5746 27.4229 10.7759 28.3304 11.52C29.5746 12.5399 29.921 14.2716 30.6135 17.735L31.5135 22.235C32.5097 27.2156 33.0078 29.7059 31.6575 31.353C30.3072 33 27.7676 33 22.6884 33H14.6448C9.56556 33 7.02594 33 5.67567 31.353C4.32542 29.7059 4.82348 27.2156 5.81961 22.235L6.71961 17.735C7.41228 14.2716 7.75861 12.5399 9.00276 11.52C9.91039 10.7759 11.0957 10.5746 13.0418 10.5202ZM15.2916 9C15.2916 7.13604 16.8027 5.625 18.6666 5.625C20.5305 5.625 22.0416 7.13604 22.0416 9V10.5C21.9582 10.5 21.8738 10.5 21.7884 10.5H15.5448C15.4594 10.5 15.375 10.5 15.2916 10.5V9ZM23.1666 16.5C23.9951 16.5 24.6666 15.8284 24.6666 15C24.6666 14.1716 23.9951 13.5 23.1666 13.5C22.3382 13.5 21.6666 14.1716 21.6666 15C21.6666 15.8284 22.3382 16.5 23.1666 16.5ZM15.6666 15C15.6666 15.8284 14.995 16.5 14.1666 16.5C13.3382 16.5 12.6666 15.8284 12.6666 15C12.6666 14.1716 13.3382 13.5 14.1666 13.5C14.995 13.5 15.6666 14.1716 15.6666 15Z" fill="#ADADAD"/>
</svg>
